<svg xmlns="http://www.w3.org/2000/svg" xmlns:xlink="http://www.w3.org/1999/xlink" viewBox="0 0 880 731.87"><defs><style>.cls-1{fill:#2aa9e0;}.cls-2{fill:url(#linear-gradient);}.cls-3{fill:#ef5726;}.cls-4{fill:#111;}.cls-5{fill:#fff;}.cls-6{fill:#029443;}</style><linearGradient id="linear-gradient" x1="431.44" y1="664.85" x2="431.44" y2="42.86" gradientUnits="userSpaceOnUse"><stop offset="0" stop-color="#231f20"/><stop offset="0.34" stop-color="#534f50" stop-opacity="0.78"/><stop offset="0.86" stop-color="#d5d4d5" stop-opacity="0.19"/><stop offset="1" stop-color="#fff" stop-opacity="0"/></linearGradient></defs><g id="Layer_2" data-name="Layer 2"><g id="Layer_1-2" data-name="Layer 1"><path class="cls-1" d="M472.55,180.14V37.53l20.37-2.76,32.19,97.52V30.42l14.46-2V171.08l-16.5,2.23L487,62.26V178.19Z"/><path class="cls-1" d="M576,166.14V103.6L547.31,27.42l16.91-2.29L584.6,81.86,605,19.62l15.69-2.12-28.73,84V164Z"/><path class="cls-1" d="M669.75,153.47l-5.29-29.64-33,4.46-5.29,31.08-14.88,2,26.49-146.2,21.39-2.89,26.69,139ZM633.9,114.11l28.11-3.8L647.75,32Z"/><path class="cls-1" d="M705.41,148.65V86.1L676.68,9.92l16.91-2.29L714,64.37,734.34,2.12,750,0,721.3,84V146.5Z"/><path class="cls-1" d="M525.92,331.42l-23.83-67.27-13.65,26.5v45.84l-15.89,2.14V196l15.89-2.15v70.29l37.28-75.33,16.5-2.23L512.68,244l30,85.19Z"/><path class="cls-1" d="M602.73,321l-5.3-29.64-33,4.46-5.3,31.07-14.87,2,26.48-146.2,21.39-2.89,26.69,139Zm-35.86-39.36L595,277.86l-14.27-78.34Z"/><path class="cls-1" d="M655.08,314V171.33L671,169.18V230.1l33.82-4.57V164.61l15.89-2.15V305.07l-15.89,2.15V240L671,244.57V311.8Z"/><path class="cls-1" d="M787.3,296.06,782,266.42l-33,4.47L743.7,302l-14.87,2,26.49-146.19,21.39-2.9,26.69,139ZM751.45,256.7l28.11-3.8L765.3,174.56Z"/><path class="cls-1" d="M880,282.3v14.47l-4.69.63c-10,1.35-16.5-2.25-19.15-11.06a41.76,41.76,0,0,1-14.26,4.38c-21,2.83-32.59-8.23-32.59-30.84v-76.4c0-22.61,11.61-36.61,32.59-39.45,21.19-2.87,32.8,8,32.8,30.6V251q0,17.11-8.55,27.44c1.63,3.65,5.29,5,10.79,4.25Zm-21.19-28.1V175.76c0-13-5.7-18.78-16.91-17.27s-16.7,8.78-16.7,21.82v78.44c0,13.24,5.5,19,16.7,17.5S858.81,267.44,858.81,254.2Z"/><path d="M472.55,497.13V354.52l23-3.12,21,111.05,20.78-116.7,23.23-3.14V485.22l-15.28,2.07v-119l-22.62,122-13.44,1.82L486.6,376.25v119Z"/><path d="M574.82,483.3V340.68l15.89-2.15V481.15Z"/><path d="M605,479.22V336.61l15.89-2.15V462.6l40.74-5.51v14.47Z"/><path d="M669.55,470.48V327.87l20.37-2.75,32.19,97.51V320.76l14.46-2V461.42l-16.5,2.23L684,352.6V468.53Z"/><path d="M751,459.46V316.85l58.47-7.91v14.47l-42.58,5.75v46.46l34.63-4.69V385.4l-34.63,4.68v52.77l42.58-5.76v14.46Z"/><path d="M491.49,653.06V524.91l-25.26,3.42V513.86l66.42-9v14.46l-25.27,3.42V650.91Z"/><path d="M581.75,640.85l-5.3-29.64-33,4.47-5.3,31.07-14.87,2,26.48-146.19,21.39-2.9,26.69,139Zm-35.86-39.36,28.12-3.8-14.27-78.34Z"/><path d="M659.37,630.35l-23.84-67.26-13.65,26.49v45.84L606,637.57V495l15.89-2.15V563.1l37.28-75.33,16.5-2.23-29.54,57.37,30,85.18Z"/><polygon class="cls-2" points="434.2 42.86 428.69 44.2 428.69 664.85 434.2 663.51 434.2 42.86"/><path class="cls-1" d="M1.73,570.28l.06-.08v0A.54.54,0,0,0,1.73,570.28Z"/><path class="cls-1" d="M269.63,342.57l-1.24.19v.29C268.87,343.33,269.25,343.05,269.63,342.57Z"/><path class="cls-1" d="M393.6,350.37s0,.1.09.1V327.73a3.19,3.19,0,0,1-3.13-1c-.29-.19-.77,0-1-.19-.47-.76-1-1-1.8.28a1.25,1.25,0,0,1-1.24.39c0-1.24-.57-.67-.95-.58-1.24,0-2.48.19-3.62.19a5.9,5.9,0,0,1-1.42-.38c-1.62.29-3.33.86-4.76.1-.1,0-.19-.19-.29-.29-.76.1-1.61.48-2.19.19a3.43,3.43,0,0,1-1.13-.75,1.73,1.73,0,0,1,.64-.12c.85-.11,1.72-.11,2.64-.15a6.93,6.93,0,0,0,.08-1l-4.18.72a4.68,4.68,0,0,0,.77.56h0a.12.12,0,0,0-.08.09c-1,.47-1.33.38-1.24-.57l-36.63,6.28c0,.09,0,.09-.09.19a16.41,16.41,0,0,1-1.15,4.66c-.38,2.09-.85,4-1.23,4.28a.63.63,0,0,1-.57,0c-.29-1.33-1.05-1.24-1.91-1.24-.28-.09-.57-.85-.47-1.23.47-2.19-.67-2.67-.67-4.38h-.28c-.86.19-1.81.57-2.67.76a1.67,1.67,0,0,1-.66-.09c-1.53-.77-3.14-.1-4.76,1.8a7.76,7.76,0,0,1-.48,2.38,22.57,22.57,0,0,1-1.33,2.67c-.95,1-2.19,1.8-2.95.57a19.06,19.06,0,0,0,.86-2.86c.09-1.33,0-2.57,1.05-3.8v-.1c-.86-.09-1.62-.57-2.38-.09-.57.38-.86.38-1.05,0l-2.28.47c-.67.38-1.43.67-2.1,1.05-.19.09-.28,0-.38-.1a.75.75,0,0,1-.57-.47l-12,2.09a6.21,6.21,0,0,1-.48.57,2.28,2.28,0,0,1-1.24.38,8,8,0,0,1-1.23-.38h-1c-.66.1-1.23.1-1.9.19a3.53,3.53,0,0,0-.85.38c-.39,0-.67.19-1,.19a.09.09,0,0,1-.09-.09c-1-.1-1.81-.57-2.76-.29-.76.38-.95,0-.86-.47-.66.47-1.71,1.61-1.9,1.33-.76-.67-1.24-.19-2,.76a.31.31,0,0,1-.09.19c-.19.19-.38.19-.48.29v-.39l-8.85,1.53c-.19.38-.38.85-.66,1.52a16.61,16.61,0,0,0-.57,3.14c-1.43.47-2.48,0-2.38-1.52-1.33,3-2.38,1.8-3.52,2a9.19,9.19,0,0,1-1.52.48,3.06,3.06,0,0,1-1.62-.38c-.67-.57-1.14-.57-2.1.57s-1-.28-1-1.14a4.53,4.53,0,0,1-.95.19,34.37,34.37,0,0,0-3.43-.86c-.28-.09-.76.38-1.14.76s-.67.67-1.14,1.24c.28-1.43.47-2.47-.57-2-.19.1-.29-.19-.48-.38L102.09,371.31a.66.66,0,0,0-.38.19c-.38.19-.86.09-1,.38-.76,1.61-1.42,1.52-1.8.95-.19-.19-.19-.57-.19-1.05L93,372.83l-.85,1.42c1.42-.47,2.57-.85,3.61-1.23.57-.19.86.19.48,1.14a27.21,27.21,0,0,1-1.71,3.23.87.87,0,0,1-1,.19c-.47,0-.76-.57-1.14-.28-1.33.38-1.23-.76-.85-2.47.38-1.43,0-1.81-.76-1.43-.29,1.24-.58,2.38-1,3.8-.38.1-1.14.67-1.23.38a10,10,0,0,1-.86-3c-1.14,1-2.28,0-3.23,2.19-.48-.1-.86-.48-1.24-.29-1,.19-1.52,0-1.81-1.14a1.93,1.93,0,0,0-.28-.47l-4.48.76a2,2,0,0,1-1.33.76,24.49,24.49,0,0,1-3.61.38,1.85,1.85,0,0,1-.76-.19L2.57,388.24a2,2,0,0,0-.38.48,1.65,1.65,0,0,0-.48,1.14c.76.66.48.85-.38,1.24-.09.09-.19.47-.38.66-.47,1.52,3.9,2.19,4.38,2.47a12.42,12.42,0,0,0-4.19,1.43c-.09.1-.28.19-.38.29a6,6,0,0,0-.76.76,2.18,2.18,0,0,1,.76-.19c3.52-1.14,7-2,6.47-1.43a23.56,23.56,0,0,0-2.76,3.24,28.39,28.39,0,0,0-2.19,4.09A5.52,5.52,0,0,1,.76,404.6v47c2.19.1,3.81.39,3.81,1,0,.19-1.53.76-3.81,1.52V569a5.45,5.45,0,0,0,1.71,0c.19,0-.09.38-.66,1.14A34.37,34.37,0,0,1,3,574.34a2.54,2.54,0,0,0,.77,1.9c-1.05.38-2.19.86-3,1.24v1.14C1.9,578,3,577.19,4.19,576.53a3.48,3.48,0,0,1,.95.76c.66.57.85,1.61,0,3a51.27,51.27,0,0,1-4.38,4.18v8.28c5.14-.67,14.37-1.43,16.08-1.81-.86.29-4.85,1.71-9.8,3.43L28.92,591c-.09-.29-.09-.48-.19-.76.1-.19.29-.38.38-.57.19.38.29.76.48,1.23l1.05-.09c.09-.19.09-.48.19-.67a3.32,3.32,0,0,0,.76.48L35.2,590a2.33,2.33,0,0,1,.1-1.34c.66.1,1.52-.47,1.23,1.15l3-.48a7,7,0,0,0,1.24-.48.85.85,0,0,1,1.14.19l8.37-1.23.09-.1c.29-.09.58-.19,1-.38.67-.38,1.43-.85,1.71,0l1-.19c.38-.47,1-.86,1.24-.66.09,0,.19.19.28.47l7.8-1.14c.19-.67.29-1.05.48-1.14a3.28,3.28,0,0,1,2.09-.29c.19.1.19.48.1,1l209.4-31.58v-.48c.67-.19,1.24-.09,1.62-.47,1.62-1.43,2.86-1.24,4.19-1.43a3.28,3.28,0,0,0,2.66-1.9l1.81-.29.76-.1a4.75,4.75,0,0,1,1.14-.28c-1.14.95-2.57,2.28-4,3.71-.48.48-1.05,1-1.53,1.43l3.14-.57a10.65,10.65,0,0,1,1-.48c.47-.29.95-.67,1.42-.95a1,1,0,0,1,1.14-.19.71.71,0,0,1,.39.19c.19.19.57,0,.85-.19s.29-.19.48-.29c.57-.28,1.23-.66,1.8-1,1.05-.57,2.19-1.24,3.24-1.71a.73.73,0,0,1,.76-.1c.57.29,1.24-.19,1.62-1a7,7,0,0,0,.28-.76c.38-1.72,1.05-1.72,1.81-1.91s1.62.1,2.47-.38c.58,1.62,1.05,3.24,1.62,4.86,0,.09.1.28.1.38l13-2.38L393.59,536l.07-15.68h0v-.26l0,0,0-2.43h0v-4.28l-1.36-.13,0-.16a1.65,1.65,0,0,0,1.33-.09V427.63c-.28.38-.57.67-.76-.19-.19-.67-.76-.67-1.14-1.14a10.05,10.05,0,0,1,.19-1.14c.19-.86.38-1.81.48-2.57-.38.28-.76.76-.95.57-1.05-.29.47-2.19.09-3.05.57.57,1.33-.19,2.09-.38V380.82c-.09,0-.09,0-.19.09a3.74,3.74,0,0,1,.19-1.14V363c-.28-.1-.47-.29-.76-.38h.76V351.14C393.12,350.56,393,350.37,393.6,350.37ZM1.24,561a7.33,7.33,0,0,1,.28-2.38,14,14,0,0,1,2.1-2A6.52,6.52,0,0,1,1.24,561Zm25.69,27.21a7.09,7.09,0,0,1-1.05,1.33,1,1,0,0,0-.1-.57c-.76.38-1.52,1-2.28,1.24a2.64,2.64,0,0,1-2,.38c-.28,0-.38-1.15-.09-1.72.28-.76.57-2.18,1.42-1.9a14.67,14.67,0,0,0,2.19.29c.29,0,.67-.67,1.14-.86a5,5,0,0,1,1.24-.29A14.09,14.09,0,0,1,26.93,588.23Zm46.52-5c0-.09-.1-.19,0-.28a9,9,0,0,1,.19-1.24c.57,0,1-.19,1.43-.19C74.5,583.19,74.5,583.19,73.45,583.28Zm7.9-6a3.86,3.86,0,0,1-1.81.76c-1.71.57-3.43,1-5,1.52a18.28,18.28,0,0,0-2.29.48c-1.23.19-2.66.85-3.8.76a5.81,5.81,0,0,0-1.72.47,3,3,0,0,1-1.9.76H64.7a7.54,7.54,0,0,0-3.52.48,46.56,46.56,0,0,0-4.76,1c-.29,0-.57.76-.86.76-.28.19-.57,0-.85.1s-.67,0-.86.28c-1,.95-1.52.76-1.62-.19a12.25,12.25,0,0,1-1.61.38c-1.15.1-2.1-.09-3.24.1s-2.28,1-3.42,1.33c-.39.09-.67-.1-1.05-.1s-.86-.09-.86.1c-.85,2-1.23.86-1.71.48-.09,0-.19-.29-.19-.29-1.33,1.71-2.09.57-3,.38-.39.86-.67,1.9-1.43,1-.67-.57-2.09.38-3.14.67s-2.19.47-3.24.57c-.19.09-.47-.38-.38-.48a14.2,14.2,0,0,1,.76-1.71c0-.19-.09-.57-.09-1.24a1.5,1.5,0,0,1,1.05-.19c.38,0,.66.48,1.14-.76.09-.19.95.1,1.42.1a9.11,9.11,0,0,1,1.53-.19,2.62,2.62,0,0,1,1.23.28c.57-.28,1.24-1.23,1.43.19,0,.1.29.1.38,0a2.7,2.7,0,0,1,3.24.19.59.59,0,0,0,.57-.09c.76-1.24,1.33-1.14,2-1,.86.09,1.24-1,1.62-2.67,1.43-.19,3.05-.76,4.28-.66a6.05,6.05,0,0,0,3.81-1.15c.95-.47,1.71.1,2.57.1.38-.1.85.19,1.14-.1a3.72,3.72,0,0,1,2-1,19.87,19.87,0,0,1,3.33-.38c.66-.19,1.42-.57,2.09-.76a9,9,0,0,1,2.38-.86c1.14.1,2.28-.76,3.52-1.24.19-.09.48-.38.67-.38.76,1.62,2.28-.09,3.42-.28.19.09.48,0,.67,0,1.33-.19,2.76-.57,4.09-.76.66-.1,1.23.19,1.9-.38a.84.84,0,0,1,1,.19,4.14,4.14,0,0,1,.57,2A5.83,5.83,0,0,1,81.35,577.29ZM229.77,355c-.76-.1-.38-1.24,0-2.1.38-1.14,1-1.42,1.9-.66C231,353.42,230.91,355.32,229.77,355Zm45-7.62a1.56,1.56,0,0,1-1.9-.19c-.19,0-.19-1-.1-1.52a3.35,3.35,0,0,1,2.38-2.38c.57,0,1.14.19,2,.19A35.82,35.82,0,0,1,274.77,347.42Zm7.23-3.23a4.1,4.1,0,0,1-.48-1.52,2.3,2.3,0,0,1,.67-1.52,4.09,4.09,0,0,1,1.52,0s-.09.28,0,.38a6.16,6.16,0,0,0,.48,1.14C283.62,343.05,283,343.52,282,344.19Zm18.55,196.75a7.37,7.37,0,0,1-1.43.38,14,14,0,0,1-2,.38v.48a4.93,4.93,0,0,1-.38-1.62c-1.05,3-1.43.76-2.29,1.05a6.33,6.33,0,0,1-.38-1.43c.86-.28,1.43-.66,2-.86a21.61,21.61,0,0,1,2.85-1.61,1.28,1.28,0,0,1,.58-.19c.38-.19,1,1,1.71,3A1.22,1.22,0,0,1,300.55,540.94Zm92-41a4.76,4.76,0,0,1,.38-1.34c.48-.09.1.86-.57,2.1A6.45,6.45,0,0,0,392.55,499.94Zm-1.9-.67a1.42,1.42,0,0,1,.19-.57c.1.67.19,1.24.29,1.71,0,.29.09.48.09.76-.09.1-.09.1-.19,0a.4.4,0,0,1-.47,0C390.17,501.08,390.27,500.6,390.65,499.27Zm.25,13.93a1.35,1.35,0,0,1,.32-.32c0,.12,0,.23,0,.35Zm1.37-33.62c-.48,4.85-.95,9-1.14,12.84C391,486.52,391.13,480.53,392.27,479.58Zm1-103.14-1.9.29a13,13,0,0,1,.19,1.43c-.57.38-1.14,1-1.62.85-.67,0-1.14-.66-1.81-.85a24.57,24.57,0,0,0-3-.48,5.94,5.94,0,0,1,.66-1.24c.67-.38,1.62-2.57,1.81-.38,1.14-1.9,1.81-1,2.66-.95s1.24.57,2.19-.47C393.12,374,393.6,374.83,393.22,376.44Z"/><path class="cls-1" d="M.76,573.2c.29-1.05.57-2,.76-2.57-.28.28-.47.57-.76.85Z"/><path class="cls-3" d="M92.75,252.2a.06.06,0,0,0,.06.06V238.69a2,2,0,0,1-1.94-.57c-.17-.12-.47,0-.58-.12-.3-.45-.59-.62-1.12.17a.75.75,0,0,1-.76.23c0-.74-.36-.4-.59-.34-.76,0-1.53.11-2.23.11a4.35,4.35,0,0,1-.88-.22c-1,.17-2.06.51-2.94.05-.06,0-.12-.11-.18-.17-.47.06-1,.29-1.35.12a2.3,2.3,0,0,1-.7-.46,1.34,1.34,0,0,1,.4-.06c.52-.07,1.06-.07,1.63-.09a5.51,5.51,0,0,0,.05-.6l-2.58.43a2.36,2.36,0,0,0,.47.33h0a.07.07,0,0,0,0,.05c-.59.28-.82.23-.76-.34L56.11,241s0,0-.06.11a9.35,9.35,0,0,1-.71,2.78,7.15,7.15,0,0,1-.76,2.56c-.12.06-.3.06-.35,0-.18-.8-.65-.74-1.18-.74a.81.81,0,0,1-.29-.74c.29-1.3-.41-1.59-.41-2.61h-.18c-.53.11-1.12.34-1.64.45-.12,0,30.73-5.35,30.61-5.41-.94-.45-1.93-.05-2.93,1.08a4.54,4.54,0,0,1-.3,1.42,12.22,12.22,0,0,1-.82,1.59c-.59.63-1.35,1.08-1.82.34a10.61,10.61,0,0,0,.53-1.7,3.35,3.35,0,0,1,.64-2.27v-.06c-.52,0-1-.34-1.46,0s-.53.22-.65,0l-1.41.28c-.41.23-.88.4-1.29.62a.19.19,0,0,1-.24-.05.47.47,0,0,1-.35-.29l-7.4,1.25a2.58,2.58,0,0,1-.29.34,1.49,1.49,0,0,1-.77.23,5.23,5.23,0,0,1-.76-.23h-.59c-.41.06-.76.06-1.17.12a2,2,0,0,0-.53.22c-.23,0-.41.12-.59.12a.06.06,0,0,1-.06-.06,4.28,4.28,0,0,0-1.7-.17c-.47.23-.59,0-.53-.28-.41.28-1,1-1.17.79-.47-.4-.77-.11-1.23.46a.17.17,0,0,1-.06.11c-.12.11-.24.11-.3.17v-.23l-5.46.91c-.12.23-.23.51-.41.91a8.83,8.83,0,0,0-.35,1.87c-.88.29-1.53,0-1.47-.9-.82,1.81-1.47,1.07-2.17,1.19a7.12,7.12,0,0,1-.94.28,2,2,0,0,1-1-.23c-.41-.34-.71-.34-1.29.35s-.59-.18-.65-.69a2.47,2.47,0,0,1-.59.12,21.7,21.7,0,0,0-2.11-.51c-.18-.06-.47.22-.71.45s-.41.4-.7.74c.18-.85.29-1.48-.35-1.19-.12.05-.18-.12-.3-.23L63,241.05a.45.45,0,0,0-.24.12c-.23.11-.53.06-.59.23-.47,1-.88.9-1.11.56-.12-.11-.12-.34-.12-.62l-3.58.62-.53.86,2.23-.74c.35-.12.53.11.3.68a17.65,17.65,0,0,1-1.06,1.93.55.55,0,0,1-.59.11c-.29,0-.47-.34-.7-.17-.83.23-.77-.45-.53-1.47.23-.86,0-1.08-.47-.86-.18.74-.35,1.42-.59,2.28-.23,0-.7.39-.76.22a5.86,5.86,0,0,1-.53-1.81c-.71.62-1.41,0-2,1.3-.29-.06-.53-.28-.76-.17-.59.11-.94,0-1.12-.68a1.14,1.14,0,0,0-.17-.28l-2.76.45a1.2,1.2,0,0,1-.83.45,14.68,14.68,0,0,1-2.23.23,1.3,1.3,0,0,1-.47-.11l-42.22,7a1.23,1.23,0,0,0-.24.29.93.93,0,0,0-.29.68c.47.4.29.51-.24.74-.06,0-.12.28-.23.39-.3.91,2.41,1.31,2.7,1.48a7.79,7.79,0,0,0-2.59.85,2,2,0,0,1-.23.17,4,4,0,0,0-.47.46,1.36,1.36,0,0,1,.47-.12c2.17-.68,4.35-1.19,4-.85a14.73,14.73,0,0,0-1.7,1.93,16.41,16.41,0,0,0-1.35,2.44,3.38,3.38,0,0,1-.94,1.31V289c1.35.06,2.35.23,2.35.63a9.28,9.28,0,0,1-2.35.9v68.54a3.14,3.14,0,0,0,1.06,0c.11,0-.06.23-.41.69a21.49,21.49,0,0,1,.76,2.49,1.48,1.48,0,0,0,.47,1.14c-.65.23-1.35.51-1.88.74v.68c.7-.4,1.41-.85,2.11-1.25a2,2,0,0,1,.59.45c.41.35.53,1,0,1.77a31.86,31.86,0,0,1-2.7,2.49v4.94c3.17-.39,8.87-.85,9.93-1.07l-6.05,2,13.5-2c-.05-.17-.05-.28-.11-.45s.17-.23.23-.34a6,6,0,0,1,.29.74l.65-.06c.06-.12.06-.29.12-.4a1.77,1.77,0,0,0,.47.28l2.23-.34a1.25,1.25,0,0,1,.06-.79c.41.06.94-.28.76.68l1.88-.28a4,4,0,0,0,.77-.29.53.53,0,0,1,.7.12l5.17-.74.06-.06c.17-.06.35-.11.64-.23s.88-.51,1.06,0l.65-.11c.23-.28.58-.51.76-.4s.12.12.18.29l4.81-.68c.12-.4.18-.63.3-.69a2.16,2.16,0,0,1,1.29-.17c.11.06.11.29.06.57L51,368.25V368c.41-.11.76-.06,1-.28a3.91,3.91,0,0,1,2.59-.85,2,2,0,0,0,1.64-1.14l1.12-.17.47-.06a3.57,3.57,0,0,1,.7-.17c-.7.57-1.58,1.36-2.46,2.22-.3.28-.65.56-.94.85L57,368a5.18,5.18,0,0,1,.58-.29c.3-.17.59-.39.88-.56a.68.68,0,0,1,.71-.12.43.43,0,0,1,.23.12c.12.11.36,0,.53-.12s.18-.11.3-.17l1.11-.57c.65-.34,1.35-.73,2-1a.46.46,0,0,1,.47-.05c.35.17.76-.12,1-.63a3.61,3.61,0,0,0,.17-.45c.24-1,.65-1,1.12-1.14s1,.06,1.53-.23c.35,1,.64,1.93,1,2.9,0,.06.06.17.06.23l8-1.42,16-1.49,0-9.36h0v-1.58h0v-2.56l-.84-.07s0-.07,0-.1a1,1,0,0,0,.82-.06v-51c-.17.23-.35.4-.47-.11s-.47-.4-.7-.69c0-.05.06-.45.11-.68.12-.51.24-1.08.3-1.53-.24.17-.47.45-.59.34-.65-.17.29-1.31.06-1.82.35.34.82-.11,1.29-.22V270.37c-.06,0-.06,0-.12.06a2,2,0,0,1,.12-.68v-10c-.17-.05-.29-.17-.47-.22h.47v-6.88C92.46,252.31,92.4,252.2,92.75,252.2ZM.76,354.28c.06-.56,0-1.19.18-1.41a8.44,8.44,0,0,1,1.29-1.2A3.8,3.8,0,0,1,.76,354.28Zm15.86,16.25a3.77,3.77,0,0,1-.65.79.68.68,0,0,0-.05-.34,15.92,15.92,0,0,1-1.41.74,1.68,1.68,0,0,1-1.24.22c-.17,0-.23-.68-.06-1s.36-1.3.89-1.13a10.81,10.81,0,0,0,1.35.17c.17,0,.41-.4.7-.51a2.56,2.56,0,0,1,.76-.17A7.12,7.12,0,0,1,16.62,370.53Zm28.72-3c0-.05-.06-.11,0-.17a5.67,5.67,0,0,1,.12-.74c.35,0,.58-.11.88-.11C46,367.52,46,367.52,45.34,367.57ZM50.21,364a2.3,2.3,0,0,1-1.11.46c-1.06.34-2.12.62-3.11.91a11.72,11.72,0,0,0-1.41.28,12.48,12.48,0,0,1-2.35.46,3.7,3.7,0,0,0-1.06.28,1.93,1.93,0,0,1-1.18.45h-.05a4.85,4.85,0,0,0-2.18.29,27.94,27.94,0,0,0-2.93.57c-.18,0-.36.45-.53.45s-.35,0-.53.06a.61.61,0,0,0-.53.17c-.59.57-.94.45-1-.12a7.42,7.42,0,0,1-1,.23c-.7.06-1.29-.06-2,.06s-1.41.57-2.12.79c-.23.06-.41-.05-.64-.05s-.53-.06-.53.05c-.53,1.2-.76.51-1.06.29-.06,0-.12-.17-.12-.17-.82,1-1.29.34-1.88.22-.23.51-.41,1.14-.88.57-.41-.34-1.29.23-1.93.4s-1.36.28-2,.34c-.12.06-.29-.23-.24-.28a9.4,9.4,0,0,1,.47-1,7.17,7.17,0,0,1-.06-.73.9.9,0,0,1,.65-.12c.24,0,.41.29.71-.45.05-.12.58.05.88.05a6.8,6.8,0,0,1,.94-.11,1.73,1.73,0,0,1,.76.17c.35-.17.76-.74.88.11,0,.06.18.06.24,0a1.69,1.69,0,0,1,2,.12.37.37,0,0,0,.35-.06c.47-.74.83-.68,1.24-.57s.76-.62,1-1.59a15.76,15.76,0,0,1,2.64-.39,3.86,3.86,0,0,0,2.35-.69c.59-.28,1.06.06,1.58.06.24-.06.53.11.71-.06a2.39,2.39,0,0,1,1.23-.62,13.12,13.12,0,0,1,2.06-.23c.41-.11.88-.34,1.29-.45a5.74,5.74,0,0,1,1.47-.51,6,6,0,0,0,2.17-.74c.12-.06.29-.23.41-.23.47,1,1.41-.05,2.12-.17.11.06.29,0,.41,0,.82-.11,1.7-.34,2.52-.45.41-.06.77.11,1.18-.23a.53.53,0,0,1,.64.11,2.4,2.4,0,0,1,.36,1.2A3.35,3.35,0,0,1,50.21,364ZM22.65,249.63c-.47-.06-.24-.74,0-1.25.23-.68.64-.85,1.17-.4C23.41,248.67,23.35,249.8,22.65,249.63Zm27.78-4.54a1,1,0,0,1-1.18-.12c-.11,0-.11-.56-.06-.9a2,2,0,0,1,1.47-1.42c.36,0,.71.11,1.24.11A22.35,22.35,0,0,1,50.43,245.09Zm4.46-1.93a2.37,2.37,0,0,1-.29-.91,1.32,1.32,0,0,1,.41-.91,2.7,2.7,0,0,1,.94,0s-.06.17,0,.23a3.56,3.56,0,0,0,.29.68ZM66.34,360.59a5.43,5.43,0,0,1-.88.23,8.82,8.82,0,0,1-1.23.22v.29a2.88,2.88,0,0,1-.24-1c-.64,1.76-.88.46-1.41.63a4.39,4.39,0,0,1-.23-.86c.53-.17.88-.39,1.23-.51a14,14,0,0,1,1.77-1,.77.77,0,0,1,.35-.12c.23-.11.64.63,1,1.82A.69.69,0,0,1,66.34,360.59Zm25.77-19.12a2.62,2.62,0,0,1,.23-.8c.3-.05.06.51-.35,1.25A4.64,4.64,0,0,0,92.11,341.47Zm-1.18-.4a.78.78,0,0,1,.12-.34q.09.6.18,1c0,.17,0,.28,0,.45s0,.06-.11,0a.27.27,0,0,1-.3,0C90.64,342.15,90.7,341.86,90.93,341.07Zm.16,8.31a.67.67,0,0,1,.19-.19,1.49,1.49,0,0,1,0,.21Zm.84-20.07c-.29,2.9-.59,5.4-.7,7.67C91.17,333.46,91.23,329.88,91.93,329.31Zm.59-61.55-1.18.17a6.73,6.73,0,0,1,.12.85c-.35.23-.7.63-1,.51s-.7-.39-1.11-.51a15.93,15.93,0,0,0-1.88-.28,3.16,3.16,0,0,1,.41-.74c.41-.23,1-1.53,1.11-.23.71-1.13,1.12-.62,1.65-.57s.76.35,1.35-.28C92.46,266.28,92.75,266.79,92.52,267.76Z"/><path class="cls-4" d="M31.92,105.52Q46.4,103.14,55.29,109t8.91,17.92v5.94a27.86,27.86,0,0,1-5.66,17.53,24.4,24.4,0,0,1-14.93,9.23V160q9.27-1.53,14.93,3.38t5.66,14.56v21.33a28.93,28.93,0,0,1-8.63,20.9Q46.95,229,32.66,231.34L.94,236.57V110.63Zm-.56,48.87a11.91,11.91,0,0,0,7.24-3.88,11.1,11.1,0,0,0,2.78-7.6v-6.3a8.35,8.35,0,0,0-2.78-6.78c-1.85-1.55-4.27-2.08-7.24-1.59l-7.42,1.22v26.16Zm0,54.54a12.58,12.58,0,0,0,7.24-3.61,9.63,9.63,0,0,0,2.78-6.95V182.79a7.75,7.75,0,0,0-2.69-6.42c-1.79-1.43-4.17-1.91-7.14-1.42l-7.61,1.26v33.94Z"/><path class="cls-4" d="M72,224.86V98.92L94.8,95.16v51.56l19.29-3.18V92l22.82-3.76V214.16l-22.82,3.76V163.76L94.8,166.94V221.1Z"/><path class="cls-4" d="M140.8,213.52,159.72,84.46l28.75-4.74,19.29,122.76-22.25,3.67-3.9-27.55L166,181.17l-3.53,28.77Zm27.27-48.27,11.31-1.86-5.19-50.71-.93.15Z"/><path class="cls-4" d="M242.45,70.82q15.21-2.5,23.83,3.86t8.63,20.66v18A22,22,0,0,1,271.48,125a29.89,29.89,0,0,1-9.37,9.43,34.13,34.13,0,0,1-13.17,5.05v.55q11.13-1.83,16.79.67t6.21,9.82l1.86,24.92a50.65,50.65,0,0,0,1.2,8.62,27.63,27.63,0,0,0,2.88,6.85l-24.3,4a22.66,22.66,0,0,1-2.69-6.79,71.4,71.4,0,0,1-1-8.73l-1.11-21.71q-.19-3.85-1.86-5.17t-5.38-.68L234.66,153v45.07l-23,3.79V75.9Zm-.19,64.58a10.18,10.18,0,0,0,7.33-4.82c1.67-2.69,2.51-6.19,2.51-10.53v-17.8c0-3.59-.87-6.1-2.6-7.55s-4.08-1.92-7.05-1.43l-7.79,1.28v42.1Z"/><path class="cls-4" d="M277.32,191,296.24,62,325,57.22,344.28,180,322,183.65l-3.9-27.55-15.58,2.57L299,187.44Zm27.27-48.27,11.31-1.86-5.19-50.72-.93.16Z"/><path class="cls-4" d="M355.6,178.12V74.43l-16.69,2.75V54.92l56.39-9.29V67.89l-16.7,2.75V174.33Z"/><path class="cls-4" d="M24.6,731.87V691.44L.3,609.77,24.23,606,36.1,655.3l.93-.14,11.68-53,21.7-3.43L47.6,687.8v40.44Z"/><path class="cls-4" d="M63,725.8,81.91,596.87l28.75-4.54L130,715.23l-22.26,3.51-3.9-27.58-15.58,2.46L84.7,722.38Zm27.27-48.08,11.32-1.79-5.2-50.74-.93.15Z"/><path class="cls-4" d="M141.27,713.44V609.75l-16.7,2.64V590.13l56.4-8.91v22.26l-16.7,2.64V709.8Z"/><path class="cls-4" d="M219.54,575.13q15.21-2.42,23.84,4T252,599.86v18a21.84,21.84,0,0,1-3.44,11.67,29.68,29.68,0,0,1-9.36,9.37,33.88,33.88,0,0,1-13.17,5v.56q11.13-1.75,16.78.78t6.22,9.87L250.89,680a50.52,50.52,0,0,0,1.21,8.62,27.32,27.32,0,0,0,2.87,6.87l-24.3,3.84A23.14,23.14,0,0,1,228,692.5a71.6,71.6,0,0,1-1-8.74l-1.11-21.71c-.12-2.58-.74-4.3-1.85-5.18s-2.91-1.12-5.38-.73l-6.87,1.09V702.3l-23,3.64V580Zm-.18,64.57a10,10,0,0,0,7.32-4.77q2.52-4,2.51-10.51v-17.8q0-5.39-2.6-7.57t-7.05-1.48l-7.79,1.23v42.1Z"/><path class="cls-4" d="M254.42,695.56l18.92-128.93,28.75-4.55L321.38,685l-22.26,3.52-3.9-27.58-15.58,2.46-3.52,28.75Zm27.26-48.08L293,645.69l-5.2-50.75-.92.15Z"/><path class="cls-5" d="M20.5,575.32V398l27.94-4.42,27.94,85.14,1-.16V389l29.51-4.66V561.67L79,566.08,51.05,480.94l-1,.16v89.56Z"/><path class="cls-5" d="M146.61,555.4V498.48l-34.2-115,33.68-5.33,16.71,69.43,1.31-.21,16.44-74.66,30.55-4.83L179,493.36v56.92Z"/><path class="cls-5" d="M200.66,546.86l26.63-181.5L267.77,359l27.15,173-31.33,4.95L258.1,498.1l-21.93,3.46-5,40.47ZM239,479.18,255,476.66l-7.31-71.43-1.31.2Z"/><path class="cls-5" d="M316.07,528.62V471.7l-34.21-115,33.69-5.32,16.71,69.42,1.3-.2L350,346l30.55-4.83L348.45,466.59v56.92Z"/><path class="cls-6" d="M382.2,550c-30.79,5.38-46.61,8.2-64.88,10.49L334.23,679l.35.94c.35.18.47.47.23.59a5.54,5.54,0,0,0,1-.06,2.54,2.54,0,0,1,1.17.17c.12.06,0,.24-.06.41s0,.12-.12.12a4.61,4.61,0,0,1,2.7.59.75.75,0,0,0,1,.11c.06,0,.24.06.3.06V682c-.53.06,0,.18-.12.29l52.77-7,.25-126.52C390.24,549.21,385.83,549.85,382.2,550Z"/><polygon class="cls-6" points="143.09 579.48 143.57 579.38 143.57 579.48 143.09 579.48"/><path class="cls-6" d="M319.38,596.89c-.11-.24-.23-.41-.11-.59Z"/><path d="M113.27,351.28q-8.73-7-8.72-21.32V296l22.84-3.76v31.33c0,3.61.86,6.23,2.6,7.87s4.08,2.22,7.06,1.73a10.84,10.84,0,0,0,7.05-4.05,13.79,13.79,0,0,0,2.61-8.73V225.29l22.85-3.77,0,97.74q0,14.37-8.73,24.19t-23.78,12.31Q122,358.24,113.27,351.28Z"/><path d="M186.09,339.29q-8.73-6.94-8.73-21.32l0-68.82q0-14.35,8.73-24.19t23.78-12.31q15.06-2.47,23.78,4.48t8.72,21.32v68.82q0,14.37-8.73,24.19t-23.78,12.31Q194.83,346.25,186.09,339.29Zm14.12-27.69q0,5.41,2.6,7.87c1.74,1.65,4.09,2.22,7.06,1.73a10.89,10.89,0,0,0,7.06-4.05,13.71,13.71,0,0,0,2.6-8.73l0-63.6c0-3.6-.87-6.23-2.6-7.87s-4.09-2.22-7.06-1.73a10.86,10.86,0,0,0-7.06,4.05,13.81,13.81,0,0,0-2.61,8.73Z"/><path d="M279.55,203.42q16-2.62,25.82,4.24t9.84,20.85v64.72a33.4,33.4,0,0,1-9.85,24.1q-9.86,10.11-25.83,12.73l-29.35,4.83,0-126.64Zm0,103.89a15.61,15.61,0,0,0,9.29-4.8,13,13,0,0,0,3.53-9.06V235.81q0-5.22-3.53-7.9t-9.29-1.74l-6.5,1.07v81.14Z"/><path d="M331.73,315.31Q323,308.37,323,294V225.17q0-14.35,8.74-24.19t23.78-12.31q15-2.47,23.77,4.48T388,214.47v68.82q0,14.37-8.74,24.2t-23.78,12.3Q340.46,322.27,331.73,315.31Zm14.12-27.68c0,3.6.86,6.22,2.6,7.87s4.08,2.22,7.05,1.73a10.81,10.81,0,0,0,7.06-4.06,13.71,13.71,0,0,0,2.61-8.73v-63.6q0-5.4-2.6-7.87t-7.06-1.73a10.83,10.83,0,0,0-7.06,4.06,13.77,13.77,0,0,0-2.6,8.73Z"/></g></g></svg>